<svg height="40" viewBox="0 0 56 40" width="56" xmlns="http://www.w3.org/2000/svg">
<path d="M7.50485 30.9153H0V0H7.50485V30.9153ZM54.8537 24.2712H43.6646C44.2104 22.3729 47.3488 21.2881 50.4872 19.3898C54.0349 17.2203 55.8088 14.6441 55.8088 11.2542C55.8088 5.9661 51.4424 2.16949 45.7114 2.16949C39.9804 2.16949 35.2046 5.9661 35.2046 12.339H42.3001C42.3001 10.3051 43.5282 8.81356 45.4385 8.81356C47.2124 8.81356 48.1675 10.0339 48.1675 11.2542C48.1675 12.6102 47.0759 13.6949 42.8459 16C37.3878 18.9831 34.9317 22.2373 34.9317 27.5254V30.9153H54.9901V24.2712H54.8537ZM32.7485 28.8814C32.7485 35.5254 28.1091 40 21.4229 40C16.5107 40 10.7797 37.1525 10.2339 30.9153H17.4658C17.8752 32.678 19.2397 33.6271 21.2865 33.6271C23.6062 33.6271 25.2436 32.2712 25.2436 29.6949V27.7966C24.152 28.7458 22.3781 29.4237 19.922 29.4237C14.0545 29.4237 9.41518 24.678 9.41518 18.4407C9.41518 12.0678 13.9181 7.05085 19.922 7.05085C22.3781 7.05085 24.2884 8 25.2436 9.08475V7.45763H32.7485V28.8814ZM25.5165 18.1695C25.5165 15.7288 23.7426 13.8305 21.2865 13.8305C18.8304 13.8305 17.0565 15.8644 17.0565 18.1695C17.0565 20.6102 18.8304 22.5085 21.2865 22.5085C23.7426 22.5085 25.5165 20.6102 25.5165 18.1695Z" fill="#000"/>
</svg>